<svg width="24" height="24" viewBox="0 0 24 24" fill="none" xmlns="http://www.w3.org/2000/svg">
<path d="M5 17H18C20.2091 17 22 15.2091 22 13C22 11.1238 20.7083 9.54938 18.9657 9.11736C18.9884 8.9147 19 8.70871 19 8.5C19 5.46243 16.5376 3 13.5 3C10.9806 3 8.85678 4.69403 8.20557 7.00519C8.13748 7.00174 8.06894 7 8 7C5.79086 7 4 8.79086 4 11C4 11.0568 4.00118 11.1133 4.00352 11.1695C2.83649 11.5803 2 12.6925 2 14C2 15.6569 3.34315 17 5 17Z" fill="url(#paint0_linear_111_3006)"/>
<path d="M9.88261 18H8.50065C8.12895 18 7.88721 18.3912 8.05343 18.7236L9.19163 21L10.3298 18.7236C10.496 18.3912 10.2543 18 9.88261 18Z" fill="url(#paint1_linear_111_3006)"/>
<path d="M10.8997 20.3757L11.5835 18.3243C11.6481 18.1306 11.8293 18 12.0335 18C12.3573 18 12.5859 18.3172 12.4835 18.6243L11.7997 20.6757C11.7352 20.8694 11.5539 21 11.3497 21C11.026 21 10.7974 20.6828 10.8997 20.3757Z" fill="url(#paint2_linear_111_3006)"/>
<path d="M12.8997 20.3757L13.5835 18.3243C13.6481 18.1306 13.8293 18 14.0335 18C14.3573 18 14.5859 18.3172 14.4835 18.6243L13.7997 20.6757C13.7352 20.8694 13.5539 21 13.3497 21C13.026 21 12.7974 20.6828 12.8997 20.3757Z" fill="url(#paint3_linear_111_3006)"/>
<path d="M15.5835 18.3243L14.8997 20.3757C14.7974 20.6828 15.026 21 15.3497 21C15.5539 21 15.7352 20.8694 15.7997 20.6757L16.4835 18.6243C16.5859 18.3172 16.3573 18 16.0335 18C15.8293 18 15.6481 18.1306 15.5835 18.3243Z" fill="url(#paint4_linear_111_3006)"/>
<defs>
<linearGradient id="paint0_linear_111_3006" x1="12" y1="3" x2="12" y2="17" gradientUnits="userSpaceOnUse">
<stop stop-color="#95B6F6"/>
<stop offset="1" stop-color="#5193DE"/>
</linearGradient>
<linearGradient id="paint1_linear_111_3006" x1="12.2541" y1="18" x2="12.2541" y2="21" gradientUnits="userSpaceOnUse">
<stop stop-color="#B2D4F7"/>
<stop offset="1" stop-color="#D9E2F3"/>
</linearGradient>
<linearGradient id="paint2_linear_111_3006" x1="12.2541" y1="18" x2="12.2541" y2="21" gradientUnits="userSpaceOnUse">
<stop stop-color="#95B6F6"/>
<stop offset="1" stop-color="#5193DE"/>
</linearGradient>
<linearGradient id="paint3_linear_111_3006" x1="12.2541" y1="18" x2="12.2541" y2="21" gradientUnits="userSpaceOnUse">
<stop stop-color="#95B6F6"/>
<stop offset="1" stop-color="#5193DE"/>
</linearGradient>
<linearGradient id="paint4_linear_111_3006" x1="12.2541" y1="18" x2="12.2541" y2="21" gradientUnits="userSpaceOnUse">
<stop stop-color="#95B6F6"/>
<stop offset="1" stop-color="#5193DE"/>
</linearGradient>
</defs>
</svg>
