<svg width="32" height="32" viewBox="0 0 32 32" fill="none" xmlns="http://www.w3.org/2000/svg">
<path fill-rule="evenodd" clip-rule="evenodd" d="M27.591 19.1055C28.0513 17.3878 28.1145 15.6572 27.837 14.0112C27.4654 15.2031 26.8022 16.2328 25.947 17.0411L25.9461 17.0497C25.3061 17.68 24.5516 18.184 23.7221 18.5339C22.7901 18.927 21.7849 19.1166 20.7738 19.0901C19.7627 19.0635 18.7688 18.8214 17.8588 18.3798C16.9488 17.9383 16.1435 17.3076 15.4968 16.5298C14.8501 15.752 14.377 14.8452 14.109 13.8698C13.8409 12.8945 13.7843 11.8732 13.9427 10.8742C14.1011 9.87516 14.471 8.92149 15.0277 8.07694C15.5469 7.28919 16.2173 6.6133 16.9995 6.08813C17.9968 5.39119 19.1693 4.95189 20.4056 4.8365C19.9856 4.67135 19.552 4.52814 19.1058 4.40856C12.7042 2.69326 6.12412 6.49225 4.40882 12.8938C2.69352 19.2954 6.49251 25.8755 12.8941 27.5908C19.2957 29.3061 25.8757 25.5071 27.591 19.1055ZM25.0461 20.266C23.0255 24.5633 18.1597 26.9311 13.4117 25.6589C8.07708 24.2295 4.91125 18.7461 6.34067 13.4115C7.32782 9.7274 10.2484 7.07768 13.7182 6.26147C13.5538 6.46931 13.3982 6.68451 13.2519 6.90655C12.5287 8.00389 12.048 9.24301 11.8422 10.541C11.6363 11.8391 11.71 13.1661 12.0582 14.4334C12.4064 15.7006 13.0212 16.8789 13.8615 17.8895C14.7017 18.9001 15.748 19.7196 16.9304 20.2933C18.1129 20.867 19.4041 21.1816 20.7179 21.2161C22.0317 21.2506 23.3378 21.0042 24.5487 20.4934C24.7169 20.4225 24.8828 20.3466 25.0461 20.266ZM25.8603 8.61386L25.3359 6.99976L24.8114 8.61386L23.1143 8.61386L24.4873 9.61143L23.9629 11.2255L25.3359 10.228L26.7089 11.2255L26.1845 9.61143L27.5575 8.61386L25.8603 8.61386ZM19.3359 6.99976L19.8603 8.61386L21.5575 8.61386L20.1845 9.61143L20.7089 11.2255L19.3359 10.228L17.9629 11.2255L18.4873 9.61143L17.1143 8.61386L18.8114 8.61386L19.3359 6.99976ZM22.8603 12.6139L22.3359 10.9998L21.8114 12.6139L20.1143 12.6139L21.4873 13.6114L20.9629 15.2255L22.3359 14.228L23.7089 15.2255L23.1845 13.6114L24.5575 12.6139L22.8603 12.6139Z" fill="url(#paint0_linear_207_844)"/>
<defs>
<linearGradient id="paint0_linear_207_844" x1="19.1058" y1="4.40856" x2="12.8941" y2="27.5908" gradientUnits="userSpaceOnUse">
<stop stop-color="#F5BD52"/>
<stop offset="1" stop-color="#F5DA79"/>
</linearGradient>
</defs>
</svg>
