<svg width="32" height="32" viewBox="0 0 32 32" fill="none" xmlns="http://www.w3.org/2000/svg">
<path fill-rule="evenodd" clip-rule="evenodd" d="M29.8175 8.76695C30.0309 7.96995 30.0536 7.16679 29.9136 6.40596C29.3725 7.64418 28.0001 8.34514 26.6469 8.00215C26.2042 7.88994 25.8129 7.67848 25.4906 7.39758C25.3503 7.2941 25.2225 7.17372 25.1105 7.03882C24.9136 6.8019 24.7696 6.52564 24.688 6.22853L24.6797 6.19737C24.5048 5.69531 24.4701 5.1382 24.6103 4.58438C24.894 3.46358 25.814 2.67216 26.8869 2.49808C26.6119 2.37102 26.3223 2.2656 26.0197 2.18447C23.3256 1.46207 20.5608 2.92338 19.6021 5.48417C20.2284 6.03556 20.7853 6.66411 21.2578 7.35498C21.2598 7.07346 21.2973 6.78754 21.3735 6.50283C21.5871 5.70519 22.0688 5.05152 22.6953 4.61257C22.6631 4.73859 22.6367 4.86627 22.6163 4.99523C22.5224 5.58746 22.556 6.19291 22.7148 6.77111C22.8736 7.34931 23.1539 7.88692 23.537 8.348C23.9201 8.80908 24.3971 9.18299 24.9362 9.44473C25.4753 9.70648 26.0641 9.85003 26.6631 9.86577C26.7441 9.8679 26.8251 9.86769 26.9058 9.86515C26.0846 10.6161 24.91 10.9446 23.7569 10.6354C23.3056 10.5144 22.9002 10.3072 22.5539 10.0361C22.6515 10.3517 22.734 10.6739 22.8004 11.002C22.8666 10.9999 22.9331 10.9988 22.9998 10.9988C24.4182 10.9988 25.7217 11.4913 26.7487 12.3147C28.2073 11.6869 29.3747 10.4209 29.8175 8.76695Z" fill="url(#paint0_linear_207_855)"/>
<path fill-rule="evenodd" clip-rule="evenodd" d="M24 23.9572C27.375 23.57 30 20.6028 30 17C30 13.134 26.9776 10 23.2493 10C23.1054 10 22.9626 10.0047 22.821 10.0139C21.5661 5.38977 17.469 2 12.6083 2C6.74949 2 2 6.92487 2 13C2 18.1419 5.40237 22.4598 10 23.665V21.5772C6.55261 20.4291 4 17.0657 4 13C4 7.96046 7.92179 4 12.6083 4C16.5839 4 20.0091 6.85004 20.9569 10.7911L20.9599 10.7899C21.0937 11.3367 21.1791 11.9037 21.2108 12.4855C21.8339 12.1732 22.5272 12 23.2493 12C25.8053 12 28 14.1696 28 17C28 19.5486 26.2205 21.5615 24 21.937V23.9572ZM13.5021 28.0021C13.7442 28.0021 14.0022 27.7921 14.0021 27.456C14.0021 27.272 13.9389 26.9263 13.7435 26.4168C13.6656 26.2136 13.5746 26.0045 13.4744 25.7938C13.1753 26.4437 13.0015 27.0277 13.0017 27.456C13.0018 27.7921 13.2599 28.0021 13.5021 28.0021ZM12.2923 23.7572C12.9029 22.7302 13.5002 22 13.5002 22C13.5002 22 14.0699 22.7554 14.6655 23.7778C15.318 24.8977 16.0018 26.3379 16.0021 27.456C16.0025 28.8622 14.8835 30.0021 13.5027 30.0021C12.1218 30.0021 11.0021 28.8622 11.0017 27.456C11.0013 26.229 11.654 24.8309 12.2923 23.7572ZM20.0021 24.456C20.0022 24.7921 19.7442 25.0021 19.5021 25.0021C19.2599 25.0021 19.0018 24.7921 19.0017 24.456C19.0015 24.0277 19.1753 23.4437 19.4744 22.7938C19.5746 23.0045 19.6656 23.2136 19.7435 23.4168C19.9389 23.9263 20.0021 24.272 20.0021 24.456ZM19.5002 19C19.5002 19 18.9029 19.7302 18.2923 20.7572C17.654 21.8309 17.0013 23.229 17.0017 24.456C17.0021 25.8622 18.1218 27.0021 19.5027 27.0021C20.8835 27.0021 22.0025 25.8622 22.0021 24.456C22.0018 23.3379 21.318 21.8977 20.6655 20.7778C20.0699 19.7554 19.5002 19 19.5002 19Z" fill="url(#paint1_linear_207_855)"/>
<defs>
<linearGradient id="paint0_linear_207_855" x1="24.802" y1="2" x2="24.802" y2="12.3147" gradientUnits="userSpaceOnUse">
<stop stop-color="#F5BD52"/>
<stop offset="1" stop-color="#F5DA79"/>
</linearGradient>
<linearGradient id="paint1_linear_207_855" x1="16" y1="2" x2="16" y2="30.0021" gradientUnits="userSpaceOnUse">
<stop stop-color="#95B6F6"/>
<stop offset="1" stop-color="#5193DE"/>
</linearGradient>
</defs>
</svg>
